<?xml version="1.0" encoding="UTF-8" standalone="no"?>
<!DOCTYPE svg PUBLIC "-//W3C//DTD SVG 1.1//EN"
 "http://www.w3.org/Graphics/SVG/1.1/DTD/svg11.dtd">
<!-- Generated by graphviz version 2.40.1 (20161225.0304)
 -->
<!-- Title: %3 Pages: 1 -->
<svg width="127pt" height="188pt"
 viewBox="0.00 0.00 127.42 188.00" xmlns="http://www.w3.org/2000/svg" xmlns:xlink="http://www.w3.org/1999/xlink">
<g id="graph0" class="graph" transform="scale(1 1) rotate(0) translate(4 184)">
<title>%3</title>
<polygon fill="#ffffff" stroke="transparent" points="-4,4 -4,-184 123.4176,-184 123.4176,4 -4,4"/>
<!-- city -->
<g id="node1" class="node">
<title>city</title>
<ellipse fill="none" stroke="#000000" cx="59.7088" cy="-18" rx="27" ry="18"/>
<text text-anchor="middle" x="59.7088" y="-13.8" font-family="Times,serif" font-size="14.00" fill="#000000">city</text>
</g>
<!-- state/province -->
<g id="node2" class="node">
<title>state/province</title>
<ellipse fill="none" stroke="#000000" cx="59.7088" cy="-90" rx="59.9184" ry="18"/>
<text text-anchor="middle" x="59.7088" y="-85.8" font-family="Times,serif" font-size="14.00" fill="#000000">state/province</text>
</g>
<!-- state/province&#45;&gt;city -->
<g id="edge1" class="edge">
<title>state/province&#45;&gt;city</title>
<path fill="none" stroke="#000000" d="M59.7088,-71.8314C59.7088,-64.131 59.7088,-54.9743 59.7088,-46.4166"/>
<polygon fill="#000000" stroke="#000000" points="63.2089,-46.4132 59.7088,-36.4133 56.2089,-46.4133 63.2089,-46.4132"/>
</g>
<!-- country -->
<g id="node3" class="node">
<title>country</title>
<ellipse fill="none" stroke="#000000" cx="59.7088" cy="-162" rx="37.2421" ry="18"/>
<text text-anchor="middle" x="59.7088" y="-157.8" font-family="Times,serif" font-size="14.00" fill="#000000">country</text>
</g>
<!-- country&#45;&gt;state/province -->
<g id="edge2" class="edge">
<title>country&#45;&gt;state/province</title>
<path fill="none" stroke="#000000" d="M59.7088,-143.8314C59.7088,-136.131 59.7088,-126.9743 59.7088,-118.4166"/>
<polygon fill="#000000" stroke="#000000" points="63.2089,-118.4132 59.7088,-108.4133 56.2089,-118.4133 63.2089,-118.4132"/>
</g>
</g>
</svg>
