<?xml version="1.0" encoding="UTF-8" standalone="no"?>
<!DOCTYPE svg PUBLIC "-//W3C//DTD SVG 1.1//EN"
 "http://www.w3.org/Graphics/SVG/1.1/DTD/svg11.dtd">
<!-- Generated by graphviz version 2.40.1 (20161225.0304)
 -->
<!-- Title: %3 Pages: 1 -->
<svg width="106pt" height="332pt"
 viewBox="0.00 0.00 106.32 332.00" xmlns="http://www.w3.org/2000/svg" xmlns:xlink="http://www.w3.org/1999/xlink">
<g id="graph0" class="graph" transform="scale(1 1) rotate(0) translate(4 328)">
<title>%3</title>
<polygon fill="#ffffff" stroke="transparent" points="-4,4 -4,-328 102.3194,-328 102.3194,4 -4,4"/>
<!-- [10,208) -->
<g id="node1" class="node">
<title>[10,208)</title>
<ellipse fill="none" stroke="#000000" cx="49.1597" cy="-18" rx="40.1333" ry="18"/>
<text text-anchor="middle" x="49.1597" y="-13.8" font-family="Times,serif" font-size="14.00" fill="#000000">[10,208)</text>
</g>
<!-- [208,406) -->
<g id="node2" class="node">
<title>[208,406)</title>
<ellipse fill="none" stroke="#000000" cx="49.1597" cy="-90" rx="44.9772" ry="18"/>
<text text-anchor="middle" x="49.1597" y="-85.8" font-family="Times,serif" font-size="14.00" fill="#000000">[208,406)</text>
</g>
<!-- [208,406)&#45;&gt;[10,208) -->
<g id="edge1" class="edge">
<title>[208,406)&#45;&gt;[10,208)</title>
<path fill="none" stroke="#000000" d="M49.1597,-71.8314C49.1597,-64.131 49.1597,-54.9743 49.1597,-46.4166"/>
<polygon fill="#000000" stroke="#000000" points="52.6598,-46.4132 49.1597,-36.4133 45.6598,-46.4133 52.6598,-46.4132"/>
</g>
<!-- [406,604) -->
<g id="node3" class="node">
<title>[406,604)</title>
<ellipse fill="none" stroke="#000000" cx="49.1597" cy="-162" rx="44.9772" ry="18"/>
<text text-anchor="middle" x="49.1597" y="-157.8" font-family="Times,serif" font-size="14.00" fill="#000000">[406,604)</text>
</g>
<!-- [406,604)&#45;&gt;[208,406) -->
<g id="edge2" class="edge">
<title>[406,604)&#45;&gt;[208,406)</title>
<path fill="none" stroke="#000000" d="M49.1597,-143.8314C49.1597,-136.131 49.1597,-126.9743 49.1597,-118.4166"/>
<polygon fill="#000000" stroke="#000000" points="52.6598,-118.4132 49.1597,-108.4133 45.6598,-118.4133 52.6598,-118.4132"/>
</g>
<!-- [604,802) -->
<g id="node4" class="node">
<title>[604,802)</title>
<ellipse fill="none" stroke="#000000" cx="49.1597" cy="-234" rx="44.9772" ry="18"/>
<text text-anchor="middle" x="49.1597" y="-229.8" font-family="Times,serif" font-size="14.00" fill="#000000">[604,802)</text>
</g>
<!-- [604,802)&#45;&gt;[406,604) -->
<g id="edge3" class="edge">
<title>[604,802)&#45;&gt;[406,604)</title>
<path fill="none" stroke="#000000" d="M49.1597,-215.8314C49.1597,-208.131 49.1597,-198.9743 49.1597,-190.4166"/>
<polygon fill="#000000" stroke="#000000" points="52.6598,-190.4132 49.1597,-180.4133 45.6598,-190.4133 52.6598,-190.4132"/>
</g>
<!-- [802,1000) -->
<g id="node5" class="node">
<title>[802,1000)</title>
<ellipse fill="none" stroke="#000000" cx="49.1597" cy="-306" rx="49.3199" ry="18"/>
<text text-anchor="middle" x="49.1597" y="-301.8" font-family="Times,serif" font-size="14.00" fill="#000000">[802,1000)</text>
</g>
<!-- [802,1000)&#45;&gt;[604,802) -->
<g id="edge4" class="edge">
<title>[802,1000)&#45;&gt;[604,802)</title>
<path fill="none" stroke="#000000" d="M49.1597,-287.8314C49.1597,-280.131 49.1597,-270.9743 49.1597,-262.4166"/>
<polygon fill="#000000" stroke="#000000" points="52.6598,-262.4132 49.1597,-252.4133 45.6598,-262.4133 52.6598,-262.4132"/>
</g>
</g>
</svg>
