<?xml version="1.0" encoding="UTF-8" standalone="no"?>
<!DOCTYPE svg PUBLIC "-//W3C//DTD SVG 1.1//EN"
 "http://www.w3.org/Graphics/SVG/1.1/DTD/svg11.dtd">
<!-- Generated by graphviz version 2.40.1 (20161225.0304)
 -->
<!-- Title: %3 Pages: 1 -->
<svg width="97pt" height="692pt"
 viewBox="0.00 0.00 97.48 692.00" xmlns="http://www.w3.org/2000/svg" xmlns:xlink="http://www.w3.org/1999/xlink">
<g id="graph0" class="graph" transform="scale(1 1) rotate(0) translate(4 688)">
<title>%3</title>
<polygon fill="#ffffff" stroke="transparent" points="-4,4 -4,-688 93.4759,-688 93.4759,4 -4,4"/>
<!-- [53,156] -->
<g id="node1" class="node">
<title>[53,156]</title>
<ellipse fill="none" stroke="#000000" cx="44.738" cy="-18" rx="40.1333" ry="18"/>
<text text-anchor="middle" x="44.738" y="-13.8" font-family="Times,serif" font-size="14.00" fill="#000000">[53,156]</text>
</g>
<!-- [159,229] -->
<g id="node2" class="node">
<title>[159,229]</title>
<ellipse fill="none" stroke="#000000" cx="44.738" cy="-90" rx="44.9772" ry="18"/>
<text text-anchor="middle" x="44.738" y="-85.8" font-family="Times,serif" font-size="14.00" fill="#000000">[159,229]</text>
</g>
<!-- [159,229]&#45;&gt;[53,156] -->
<g id="edge1" class="edge">
<title>[159,229]&#45;&gt;[53,156]</title>
<path fill="none" stroke="#000000" d="M44.738,-71.8314C44.738,-64.131 44.738,-54.9743 44.738,-46.4166"/>
<polygon fill="#000000" stroke="#000000" points="48.2381,-46.4132 44.738,-36.4133 41.2381,-46.4133 48.2381,-46.4132"/>
</g>
<!-- [246,345] -->
<g id="node3" class="node">
<title>[246,345]</title>
<ellipse fill="none" stroke="#000000" cx="44.738" cy="-162" rx="44.9772" ry="18"/>
<text text-anchor="middle" x="44.738" y="-157.8" font-family="Times,serif" font-size="14.00" fill="#000000">[246,345]</text>
</g>
<!-- [246,345]&#45;&gt;[159,229] -->
<g id="edge2" class="edge">
<title>[246,345]&#45;&gt;[159,229]</title>
<path fill="none" stroke="#000000" d="M44.738,-143.8314C44.738,-136.131 44.738,-126.9743 44.738,-118.4166"/>
<polygon fill="#000000" stroke="#000000" points="48.2381,-118.4132 44.738,-108.4133 41.2381,-118.4133 48.2381,-118.4132"/>
</g>
<!-- [346,448] -->
<g id="node4" class="node">
<title>[346,448]</title>
<ellipse fill="none" stroke="#000000" cx="44.738" cy="-234" rx="44.9772" ry="18"/>
<text text-anchor="middle" x="44.738" y="-229.8" font-family="Times,serif" font-size="14.00" fill="#000000">[346,448]</text>
</g>
<!-- [346,448]&#45;&gt;[246,345] -->
<g id="edge3" class="edge">
<title>[346,448]&#45;&gt;[246,345]</title>
<path fill="none" stroke="#000000" d="M44.738,-215.8314C44.738,-208.131 44.738,-198.9743 44.738,-190.4166"/>
<polygon fill="#000000" stroke="#000000" points="48.2381,-190.4132 44.738,-180.4133 41.2381,-190.4133 48.2381,-190.4132"/>
</g>
<!-- [454,543] -->
<g id="node5" class="node">
<title>[454,543]</title>
<ellipse fill="none" stroke="#000000" cx="44.738" cy="-306" rx="44.9772" ry="18"/>
<text text-anchor="middle" x="44.738" y="-301.8" font-family="Times,serif" font-size="14.00" fill="#000000">[454,543]</text>
</g>
<!-- [454,543]&#45;&gt;[346,448] -->
<g id="edge4" class="edge">
<title>[454,543]&#45;&gt;[346,448]</title>
<path fill="none" stroke="#000000" d="M44.738,-287.8314C44.738,-280.131 44.738,-270.9743 44.738,-262.4166"/>
<polygon fill="#000000" stroke="#000000" points="48.2381,-262.4132 44.738,-252.4133 41.2381,-262.4133 48.2381,-262.4132"/>
</g>
<!-- [544,629] -->
<g id="node6" class="node">
<title>[544,629]</title>
<ellipse fill="none" stroke="#000000" cx="44.738" cy="-378" rx="44.9772" ry="18"/>
<text text-anchor="middle" x="44.738" y="-373.8" font-family="Times,serif" font-size="14.00" fill="#000000">[544,629]</text>
</g>
<!-- [544,629]&#45;&gt;[454,543] -->
<g id="edge5" class="edge">
<title>[544,629]&#45;&gt;[454,543]</title>
<path fill="none" stroke="#000000" d="M44.738,-359.8314C44.738,-352.131 44.738,-342.9743 44.738,-334.4166"/>
<polygon fill="#000000" stroke="#000000" points="48.2381,-334.4132 44.738,-324.4133 41.2381,-334.4133 48.2381,-334.4132"/>
</g>
<!-- [641,727] -->
<g id="node7" class="node">
<title>[641,727]</title>
<ellipse fill="none" stroke="#000000" cx="44.738" cy="-450" rx="44.9772" ry="18"/>
<text text-anchor="middle" x="44.738" y="-445.8" font-family="Times,serif" font-size="14.00" fill="#000000">[641,727]</text>
</g>
<!-- [641,727]&#45;&gt;[544,629] -->
<g id="edge6" class="edge">
<title>[641,727]&#45;&gt;[544,629]</title>
<path fill="none" stroke="#000000" d="M44.738,-431.8314C44.738,-424.131 44.738,-414.9743 44.738,-406.4166"/>
<polygon fill="#000000" stroke="#000000" points="48.2381,-406.4132 44.738,-396.4133 41.2381,-406.4133 48.2381,-406.4132"/>
</g>
<!-- [731,817] -->
<g id="node8" class="node">
<title>[731,817]</title>
<ellipse fill="none" stroke="#000000" cx="44.738" cy="-522" rx="44.9772" ry="18"/>
<text text-anchor="middle" x="44.738" y="-517.8" font-family="Times,serif" font-size="14.00" fill="#000000">[731,817]</text>
</g>
<!-- [731,817]&#45;&gt;[641,727] -->
<g id="edge7" class="edge">
<title>[731,817]&#45;&gt;[641,727]</title>
<path fill="none" stroke="#000000" d="M44.738,-503.8314C44.738,-496.131 44.738,-486.9743 44.738,-478.4166"/>
<polygon fill="#000000" stroke="#000000" points="48.2381,-478.4132 44.738,-468.4133 41.2381,-478.4133 48.2381,-478.4132"/>
</g>
<!-- [837,931] -->
<g id="node9" class="node">
<title>[837,931]</title>
<ellipse fill="none" stroke="#000000" cx="44.738" cy="-594" rx="44.9772" ry="18"/>
<text text-anchor="middle" x="44.738" y="-589.8" font-family="Times,serif" font-size="14.00" fill="#000000">[837,931]</text>
</g>
<!-- [837,931]&#45;&gt;[731,817] -->
<g id="edge8" class="edge">
<title>[837,931]&#45;&gt;[731,817]</title>
<path fill="none" stroke="#000000" d="M44.738,-575.8314C44.738,-568.131 44.738,-558.9743 44.738,-550.4166"/>
<polygon fill="#000000" stroke="#000000" points="48.2381,-550.4132 44.738,-540.4133 41.2381,-550.4133 48.2381,-550.4132"/>
</g>
<!-- [935,996] -->
<g id="node10" class="node">
<title>[935,996]</title>
<ellipse fill="none" stroke="#000000" cx="44.738" cy="-666" rx="44.9772" ry="18"/>
<text text-anchor="middle" x="44.738" y="-661.8" font-family="Times,serif" font-size="14.00" fill="#000000">[935,996]</text>
</g>
<!-- [935,996]&#45;&gt;[837,931] -->
<g id="edge9" class="edge">
<title>[935,996]&#45;&gt;[837,931]</title>
<path fill="none" stroke="#000000" d="M44.738,-647.8314C44.738,-640.131 44.738,-630.9743 44.738,-622.4166"/>
<polygon fill="#000000" stroke="#000000" points="48.2381,-622.4132 44.738,-612.4133 41.2381,-622.4133 48.2381,-622.4132"/>
</g>
</g>
</svg>
